<?xml version="1.0" encoding="UTF-8" standalone="no"?>
<svg
   version="1.1"
   id="Layer_1"
   x="0px"
   y="0px"
   viewBox="0 0 512 512"
   style="enable-background:new 0 0 512 512;"
   xml:space="preserve"
   sodipodi:docname="logout.svg"
   inkscape:version="1.3.2 (091e20ef0f, 2023-11-25)"
   xmlns:inkscape="http://www.inkscape.org/namespaces/inkscape"
   xmlns:sodipodi="http://sodipodi.sourceforge.net/DTD/sodipodi-0.dtd"
   xmlns="http://www.w3.org/2000/svg"
   xmlns:svg="http://www.w3.org/2000/svg"><defs
   id="defs1" /><sodipodi:namedview
   id="namedview1"
   pagecolor="#ffffff"
   bordercolor="#000000"
   borderopacity="0.25"
   inkscape:showpageshadow="2"
   inkscape:pageopacity="0.0"
   inkscape:pagecheckerboard="0"
   inkscape:deskcolor="#d1d1d1"
   inkscape:zoom="2.3007812"
   inkscape:cx="255.78268"
   inkscape:cy="256"
   inkscape:window-width="2560"
   inkscape:window-height="1391"
   inkscape:window-x="0"
   inkscape:window-y="0"
   inkscape:window-maximized="1"
   inkscape:current-layer="g1" />
<g
   id="g1">
	<path
   d="M458.4,384.3h-41c-2.8,0-5.4,1.2-7.2,3.4c-4.1,5-8.5,9.7-13.1,14.3c-18.8,18.9-41.2,33.9-65.7,44.3   C306,457,278.6,462.5,251,462.4c-27.9,0-55-5.5-80.4-16.2c-24.6-10.4-46.9-25.4-65.7-44.3c-18.9-18.8-33.9-41.1-44.3-65.6   c-10.8-25.4-16.2-52.4-16.2-80.4c0-27.9,5.5-54.9,16.2-80.4c10.4-24.6,25.3-46.7,44.3-65.6c19-19,41.1-33.9,65.7-44.3   C196,55,223.1,49.6,251,49.6s55,5.4,80.4,16.2c24.6,10.4,46.7,25.3,65.7,44.3c4.6,4.6,8.9,9.4,13.1,14.3c1.7,2.2,4.4,3.4,7.2,3.4   h41c3.7,0,5.9-4.1,3.9-7.2C417.5,51,339.3,5,250.4,5.2C110.6,5.6-1.4,119,0,258.6c1.4,137.3,113.2,248.2,251,248.2   c88.7,0,166.6-46,211.3-115.3C464.3,388.4,462,384.3,458.4,384.3z M510.2,252.3L427.5,187c-3.1-2.4-7.6-0.2-7.6,3.7V235H236.8   c-2.6,0-4.7,2.1-4.7,4.7v32.7c0,2.6,2.1,4.7,4.7,4.7h183.1v44.3c0,3.9,4.5,6.1,7.6,3.7l82.7-65.3c2-1.6,2.4-4.5,0.8-6.5   C510.8,252.8,510.5,252.6,510.2,252.3z"
   id="path1"
   style="fill:#f2f2f2" />
</g>
</svg>
